<svg width="64" height="19" viewBox="0 0 64 19" fill="none" xmlns="http://www.w3.org/2000/svg">
<path d="M33.7443 3.36364V15H31.6193L26.5568 7.67614H26.4716V15H24.0114V3.36364H26.1705L31.1932 10.6818H31.2955V3.36364H33.7443ZM38.2202 15.1648C37.6634 15.1648 37.1671 15.0682 36.7315 14.875C36.2959 14.678 35.9512 14.3883 35.6974 14.0057C35.4474 13.6193 35.3224 13.1383 35.3224 12.5625C35.3224 12.0777 35.4115 11.6705 35.5895 11.3409C35.7675 11.0114 36.0099 10.7462 36.3168 10.5455C36.6236 10.3447 36.9721 10.1932 37.3622 10.0909C37.7562 9.98864 38.169 9.91667 38.6009 9.875C39.1084 9.82197 39.5175 9.77273 39.8281 9.72727C40.1387 9.67803 40.3641 9.60606 40.5043 9.51136C40.6444 9.41667 40.7145 9.27652 40.7145 9.09091V9.05682C40.7145 8.69697 40.6009 8.41856 40.3736 8.22159C40.1501 8.02462 39.8319 7.92614 39.419 7.92614C38.9834 7.92614 38.6368 8.02273 38.3793 8.21591C38.1217 8.4053 37.9512 8.64394 37.8679 8.93182L35.6293 8.75C35.7429 8.2197 35.9664 7.76136 36.2997 7.375C36.633 6.98485 37.063 6.68561 37.5895 6.47727C38.1198 6.26515 38.7334 6.15909 39.4304 6.15909C39.9152 6.15909 40.3793 6.21591 40.8224 6.32955C41.2694 6.44318 41.6652 6.61932 42.0099 6.85795C42.3584 7.09659 42.633 7.40341 42.8338 7.77841C43.0346 8.14962 43.1349 8.5947 43.1349 9.11364V15H40.8395V13.7898H40.7713C40.6312 14.0625 40.4437 14.303 40.2088 14.5114C39.974 14.7159 39.6918 14.8769 39.3622 14.9943C39.0327 15.108 38.652 15.1648 38.2202 15.1648ZM38.9134 13.4943C39.2694 13.4943 39.5838 13.4242 39.8565 13.2841C40.1293 13.1402 40.3433 12.947 40.4986 12.7045C40.6539 12.4621 40.7315 12.1875 40.7315 11.8807V10.9545C40.6558 11.0038 40.5516 11.0492 40.419 11.0909C40.2902 11.1288 40.1444 11.1648 39.9815 11.1989C39.8187 11.2292 39.6558 11.2576 39.4929 11.2841C39.33 11.3068 39.1823 11.3277 39.0497 11.3466C38.7656 11.3883 38.5175 11.4545 38.3054 11.5455C38.0933 11.6364 37.9285 11.7595 37.8111 11.9148C37.6937 12.0663 37.6349 12.2557 37.6349 12.483C37.6349 12.8125 37.7543 13.0644 37.9929 13.2386C38.2353 13.4091 38.5421 13.4943 38.9134 13.4943ZM52.8366 6.27273L49.7855 15H47.0582L44.0071 6.27273H46.5639L48.3764 12.517H48.4673L50.2741 6.27273H52.8366ZM54.1207 15V3.36364H58.7116C59.5904 3.36364 60.3404 3.52083 60.9616 3.83523C61.5866 4.14583 62.062 4.58712 62.3878 5.15909C62.7173 5.72727 62.8821 6.39583 62.8821 7.16477C62.8821 7.9375 62.7154 8.60227 62.3821 9.15909C62.0488 9.71212 61.5658 10.1364 60.9332 10.4318C60.3045 10.7273 59.5431 10.875 58.6491 10.875H55.5753V8.89773H58.2514C58.7211 8.89773 59.1113 8.83333 59.4219 8.70455C59.7325 8.57576 59.9635 8.38258 60.1151 8.125C60.2704 7.86742 60.348 7.54735 60.348 7.16477C60.348 6.77841 60.2704 6.45265 60.1151 6.1875C59.9635 5.92235 59.7306 5.72159 59.4162 5.58523C59.1056 5.44508 58.7135 5.375 58.2401 5.375H56.581V15H54.1207ZM60.4048 9.70455L63.2969 15H60.581L57.7514 9.70455H60.4048Z" fill="white"/>
<path d="M9.63289 1.00082C4.2903 0.933766 -0.0712775 4.98675 0.000882687 9.95135C0.0721294 14.7127 4.24417 18.5895 9.368 18.6557C14.7115 18.7236 19.0722 14.6706 18.9991 9.70605C18.9288 4.94389 14.7567 1.06703 9.63289 1.00082ZM13.8392 6.40084L10.0832 14.3167C9.86444 14.761 9.13416 14.6138 9.13416 14.1232V10.3375C9.13416 10.2925 9.11492 10.2493 9.08066 10.2175C9.0464 10.1857 8.99993 10.1678 8.95148 10.1678H4.87854C4.35241 10.1678 4.19348 9.49427 4.66983 9.29056L13.1888 5.7965C13.2799 5.75744 13.3816 5.74527 13.4803 5.76162C13.579 5.77796 13.6699 5.82205 13.7408 5.88793C13.8117 5.9538 13.8591 6.0383 13.8767 6.13002C13.8943 6.22174 13.8812 6.31626 13.8392 6.40084Z" fill="white"/>
</svg>
